<svg width="50" height="50" viewBox="0 0 50 50" fill="none" xmlns="http://www.w3.org/2000/svg">
<path d="M31.1747 0.674425L29.4803 0.0553217C29.2622 -0.0416125 29.0473 -0.0111287 28.8384 0.146517C28.6288 0.30429 28.4873 0.541141 28.4146 0.856687L18.2232 47.8682C18.1504 48.1839 18.1732 48.4816 18.2916 48.7604C18.41 49.0397 18.5873 49.2279 18.8245 49.3248L20.5184 49.9442C20.737 50.0419 20.9511 50.0112 21.1606 49.8533C21.3701 49.6948 21.5114 49.4587 21.584 49.1437L31.7757 2.13137C31.8484 1.81582 31.8258 1.51813 31.7072 1.23868C31.5887 0.95936 31.4116 0.771232 31.1747 0.674425Z" fill="#FFAF29"/>
<path d="M15.9021 9.85155C15.9021 9.536 15.8109 9.25655 15.6287 9.01396L14.2624 7.19313C14.0803 6.95041 13.8707 6.82874 13.634 6.82874C13.3972 6.82874 13.1876 6.95054 13.0055 7.19313L0.273317 24.1622C0.0909143 24.4049 0 24.6843 0 24.9998C0 25.3154 0.0912014 25.5947 0.273317 25.8373L13.0054 42.8064C13.1875 43.0495 13.3968 43.1704 13.6339 43.1704C13.871 43.1704 14.0803 43.0491 14.2624 42.8064L15.6286 40.9865C15.8108 40.744 15.902 40.4645 15.902 40.1486C15.902 39.8334 15.8108 39.5541 15.6286 39.3115L4.8909 24.9998L15.6287 10.6891C15.8111 10.4465 15.9021 10.1671 15.9021 9.85155Z" fill="#FFAF29"/>
<path d="M49.727 24.1618L36.9945 7.19273C36.8125 6.95014 36.6028 6.82834 36.3664 6.82834C36.1293 6.82834 35.9204 6.95014 35.7377 7.19273L34.372 9.01344C34.1899 9.25616 34.0991 9.5351 34.0991 9.85103C34.0991 10.167 34.1898 10.446 34.372 10.6886L45.11 24.9997L34.372 39.3115C34.1899 39.5541 34.0991 39.8335 34.0991 40.1486C34.0991 40.4646 34.1898 40.7439 34.372 40.9865L35.7377 42.8063C35.9204 43.0494 36.1294 43.1704 36.3664 43.1704C36.6029 43.1704 36.8125 43.0491 36.9945 42.8063L49.727 25.8374C49.9091 25.5948 50.0001 25.315 50.0001 24.9994C50.0001 24.6837 49.9091 24.4044 49.727 24.1618Z" fill="#FFAF29"/>
</svg>
