<svg width="20" height="15" viewBox="0 0 20 15" fill="none" xmlns="http://www.w3.org/2000/svg">
<path d="M13.2573 7.61183L19.9997 12.2618V2.76546L13.2573 7.61183Z" fill="#252734"/>
<path d="M0 2.76546V12.2618L6.7424 7.61183L0 2.76546Z" fill="#252734"/>
<path d="M18.7493 0H1.24959C0.625851 0 0.130858 0.507273 0.0371094 1.16046L9.99946 8.32092L19.9618 1.16046C19.8681 0.507273 19.3731 0 18.7493 0Z" fill="#252734"/>
<path d="M12.1124 8.43544L10.3436 9.70636C10.2386 9.78136 10.1199 9.81817 9.99989 9.81817C9.87989 9.81817 9.76115 9.78136 9.65615 9.70636L7.88742 8.43408L0.0400391 13.8491C0.136288 14.4968 0.62878 15 1.25002 15H18.7498C19.371 15 19.8635 14.4968 19.9597 13.8491L12.1124 8.43544Z" fill="#252734"/>
</svg>
