<svg width="50" height="50" viewBox="0 0 50 50" fill="none" xmlns="http://www.w3.org/2000/svg">
<path d="M10.6848 8.37229H1.47058C0.658298 8.37229 0 7.7003 0 6.87212C0 6.04394 0.658298 5.37195 1.47058 5.37195H10.6848C11.4971 5.37195 12.1554 6.04394 12.1554 6.87212C12.1554 7.7003 11.4971 8.37229 10.6848 8.37229Z" fill="#FFAF29"/>
<path d="M15.9503 13.7432C12.236 13.7432 9.21436 10.6607 9.21436 6.87199C9.21436 3.08246 12.236 0 15.9503 0C19.6647 0 22.6863 3.08246 22.6863 6.87199C22.6863 10.6608 19.6647 13.7432 15.9503 13.7432ZM15.9503 3.00045C13.8578 3.00045 12.1555 4.73736 12.1555 6.87199C12.1555 9.00661 13.8578 10.7427 15.9503 10.7427C18.0428 10.7427 19.7452 9.00661 19.7452 6.87199C19.7452 4.73736 18.0428 3.00045 15.9503 3.00045Z" fill="#FFAF29"/>
<path d="M48.5294 8.37229H26.5502C25.7379 8.37229 25.0796 7.7003 25.0796 6.87212C25.0796 6.04394 25.7379 5.37195 26.5502 5.37195H48.5293C49.3416 5.37195 49.9999 6.04394 49.9999 6.87212C49.9999 7.7003 49.3417 8.37229 48.5294 8.37229Z" fill="#FFAF29"/>
<path d="M35.695 31.8713C31.9805 31.8713 28.959 28.7888 28.959 25.0001C28.959 21.2113 31.9806 18.1289 35.695 18.1289C39.4093 18.1289 42.4309 21.2113 42.4309 25.0001C42.4309 28.7888 39.4094 31.8713 35.695 31.8713ZM35.695 21.1293C33.6024 21.1293 31.9001 22.8655 31.9001 25.0001C31.9001 27.1347 33.6024 28.8708 35.695 28.8708C37.7875 28.8708 39.4898 27.1347 39.4898 25.0001C39.4898 22.8655 37.7875 21.1293 35.695 21.1293Z" fill="#FFAF29"/>
<path d="M25.0954 26.5002H1.47058C0.658298 26.5002 0 25.8282 0 25C0 24.1719 0.658298 23.4999 1.47058 23.4999H25.0954C25.9077 23.4999 26.566 24.1719 26.566 25C26.566 25.8282 25.9077 26.5002 25.0954 26.5002Z" fill="#FFAF29"/>
<path d="M48.5293 26.5002H40.9603C40.148 26.5002 39.4897 25.8282 39.4897 25C39.4897 24.1719 40.148 23.4999 40.9603 23.4999H48.5293C49.3415 23.4999 49.9998 24.1719 49.9998 25C49.9998 25.8282 49.3415 26.5002 48.5293 26.5002Z" fill="#FFAF29"/>
<path d="M14.3053 50C10.591 50 7.56934 46.9175 7.56934 43.128C7.56934 39.3393 10.591 36.2568 14.3053 36.2568C18.0196 36.2568 21.0413 39.3393 21.0413 43.128C21.0413 46.9175 18.0196 50 14.3053 50ZM14.3053 39.2573C12.2128 39.2573 10.5105 40.9934 10.5105 43.128C10.5105 45.2626 12.2128 46.9995 14.3053 46.9995C16.3978 46.9995 18.1001 45.2626 18.1001 43.128C18.1001 40.9934 16.3978 39.2573 14.3053 39.2573Z" fill="#FFAF29"/>
<path d="M48.5295 44.6283H24.9047C24.0924 44.6283 23.4341 43.9563 23.4341 43.1281C23.4341 42.3 24.0924 41.628 24.9047 41.628H48.5295C49.3417 41.628 50 42.3 50 43.1281C50 43.9563 49.3417 44.6283 48.5295 44.6283Z" fill="#FFAF29"/>
<path d="M9.03953 44.6283H1.47058C0.658298 44.6283 0 43.9563 0 43.128C0 42.2999 0.658298 41.6279 1.47058 41.6279H9.03953C9.85181 41.6279 10.5101 42.2999 10.5101 43.128C10.5101 43.9563 9.85181 44.6283 9.03953 44.6283Z" fill="#FFAF29"/>
</svg>
