<svg width="60" height="60" viewBox="0 0 60 60" fill="none" xmlns="http://www.w3.org/2000/svg">
<path d="M53.0899 42.3823C52.7608 42.2454 52.3821 42.321 52.1301 42.5737L42.506 52.2288C42.2541 52.4815 42.1788 52.8615 42.3152 53.1916C42.4513 53.5218 42.7727 53.737 43.1288 53.737H52.7529C53.2394 53.737 53.6336 53.3415 53.6336 52.8535V43.1984C53.6335 42.8411 53.4189 42.519 53.0899 42.3823ZM45.2546 51.9701L51.8721 45.3314V51.9701H45.2546Z" fill="#FFAF29"/>
<path d="M59.4564 28.221C59.1273 28.0842 58.7486 28.1598 58.4966 28.4124L55.8591 31.0584V13.0674C55.8591 12.5794 55.4647 12.1839 54.9784 12.1839H48.2119L50.6681 9.71977C50.6685 9.71941 50.6688 9.71894 50.6692 9.71859L53.0359 7.34426C53.543 6.83555 53.8222 6.15885 53.8222 5.43936C53.8222 4.71986 53.543 4.0434 53.0359 3.53446L50.2991 0.788858C49.792 0.280156 49.1175 0 48.4003 0C47.6831 0 47.0087 0.280156 46.5015 0.788858L44.1336 3.16437L41.2724 6.03482L35.1431 12.1838H7.80703V3.44347C7.80703 2.95545 7.4127 2.55997 6.92637 2.55997C3.10723 2.5602 0 5.67719 0 9.50885V47.0338C0 47.0991 0.0075 47.1625 0.0208594 47.2237C0.1425 48.8495 0.843633 50.3601 2.01539 51.5068C3.26789 52.7323 4.92129 53.4072 6.67113 53.4072H33.5818L28.5136 58.4918C28.2618 58.7445 28.1864 59.1244 28.3227 59.4546C28.459 59.7847 28.7802 60 29.1363 60H59.1193C59.6057 60 60 59.6045 60 59.1165V29.0373C60 28.68 59.7853 28.3577 59.4564 28.221ZM47.7472 2.03845C48.1072 1.67706 48.6938 1.67706 49.0538 2.03845L51.7907 4.78417C52.1509 5.14545 52.1509 5.73362 51.7907 6.09502L50.0456 7.84579L46.002 3.78922L47.7472 2.03845ZM44.7565 5.0387L48.8 9.09514L47.1841 10.7162L43.1408 6.6598L44.7565 5.0387ZM58.2389 38.9646H56.6141C56.1277 38.9646 55.7334 39.3601 55.7334 39.8481C55.7334 40.3362 56.1277 40.7316 56.6141 40.7316H58.2389V43.394H56.6141C56.1277 43.394 55.7334 43.7895 55.7334 44.2775C55.7334 44.7655 56.1277 45.161 56.6141 45.161H58.2389V47.8232H56.6141C56.1277 47.8232 55.7334 48.2187 55.7334 48.7067C55.7334 49.1948 56.1277 49.5902 56.6141 49.5902H58.2389V52.2526H56.6141C56.1277 52.2526 55.7334 52.6482 55.7334 53.1361C55.7334 53.6241 56.1277 54.0196 56.6141 54.0196H58.2389V58.2334H31.2623L40.1578 49.3094C40.5018 48.9642 40.5018 48.405 40.1578 48.0599C40.1183 48.0203 40.0759 47.986 40.0315 47.9554C39.6886 47.7198 39.2168 47.7545 38.9122 48.0599L35.3432 51.6405H6.67125C4.00031 51.6405 1.85016 49.5485 1.76555 46.8738C1.77059 46.7059 1.78359 46.5394 1.80445 46.3749C1.80457 46.3739 1.80469 46.373 1.8048 46.372C1.81465 46.2939 1.82648 46.216 1.83996 46.1387C1.84148 46.1298 1.84312 46.121 1.84465 46.1122C1.85695 46.0432 1.87078 45.9745 1.8859 45.9061C1.89012 45.8871 1.89457 45.868 1.89902 45.8491C1.91238 45.7913 1.9268 45.7338 1.94227 45.6765C1.9507 45.6455 1.95949 45.6148 1.96852 45.5839C1.98141 45.539 1.99477 45.4942 2.00895 45.4499C2.02312 45.4055 2.03824 45.3617 2.05359 45.3178C2.06426 45.2871 2.0748 45.2565 2.08629 45.226C2.10773 45.1682 2.13047 45.1109 2.15391 45.0541C2.16059 45.0378 2.16715 45.0212 2.17406 45.0049C2.20418 44.9343 2.23547 44.8646 2.26852 44.7957C2.26992 44.7928 2.27121 44.7899 2.27262 44.7869C2.96145 43.3569 4.28625 42.2907 5.87613 41.9598C5.88059 41.9589 5.88504 41.9578 5.88949 41.9569C5.96238 41.942 6.03598 41.9292 6.11004 41.9173C6.12234 41.9153 6.13465 41.9128 6.14719 41.9109C6.2141 41.9007 6.28172 41.8927 6.34934 41.8851C6.36832 41.8829 6.38719 41.88 6.40629 41.8781C6.47156 41.8715 6.53742 41.8672 6.60328 41.8631C6.62414 41.8618 6.645 41.8596 6.66586 41.8585C6.75211 41.8541 6.83906 41.8519 6.92637 41.8519C7.4127 41.8519 7.80703 41.4564 7.80703 40.9684V34.5624C7.80703 34.0744 7.4127 33.6789 6.92637 33.6789C6.44004 33.6789 6.0457 34.0744 6.0457 34.5624V40.1405C4.55859 40.3292 3.17824 40.9946 2.0898 42.0609C1.97531 42.1731 1.8668 42.2897 1.76109 42.4082V9.50885C1.76109 6.95288 3.6157 4.82297 6.04559 4.40232V13.0674V31.0286V31.0287C6.04559 31.5166 6.43992 31.9122 6.92625 31.9122C7.41258 31.9122 7.80691 31.5166 7.80691 31.0287V31.0286V13.9509H33.3819L28.5135 18.835C28.1695 19.1802 28.1695 19.7394 28.5135 20.0845C28.8574 20.4294 29.415 20.4294 29.7588 20.0845L36.1307 13.6922C36.1309 13.6919 36.131 13.6917 36.1313 13.6916L41.8951 7.90915L45.9384 11.9657L45.4641 12.4416C45.4637 12.442 45.4632 12.4423 45.4629 12.4427L27.7057 30.2572L23.6623 26.2008L27.1624 22.6894C27.5064 22.3442 27.5064 21.7849 27.1624 21.4399C26.8185 21.095 26.2609 21.095 25.9171 21.4399L21.7941 25.576C21.772 25.5981 21.7514 25.6215 21.7321 25.6455C21.7256 25.6535 21.7199 25.6621 21.7138 25.6704C21.7014 25.687 21.6892 25.7037 21.6778 25.7211C21.6714 25.7312 21.6655 25.7416 21.6594 25.752C21.6497 25.7685 21.6403 25.7852 21.6318 25.8022C21.6261 25.8133 21.6211 25.8245 21.6159 25.836C21.6081 25.8533 21.6008 25.8709 21.5941 25.8885C21.5918 25.8948 21.5888 25.9006 21.5865 25.9069L19.8708 30.7829L18.701 34.1075C18.6855 34.1517 18.6744 34.1966 18.6661 34.2418H15.7373C15.251 34.2418 14.8567 34.6373 14.8567 35.1253C14.8567 35.6134 15.251 36.0088 15.7373 36.0088H40.1257C40.6121 36.0088 41.0064 35.6134 41.0064 35.1253C41.0064 34.6373 40.6121 34.2418 40.1257 34.2418H22.6281L27.9988 32.3399C28.0032 32.3382 28.0075 32.336 28.0119 32.3344C28.0328 32.3266 28.0533 32.3179 28.0736 32.3086C28.0816 32.3048 28.0897 32.3013 28.0976 32.2974C28.1187 32.2869 28.1394 32.2752 28.1598 32.2628C28.1664 32.2588 28.1732 32.2551 28.1796 32.251C28.2008 32.2374 28.2214 32.2224 28.2417 32.2067C28.2468 32.2028 28.252 32.1994 28.257 32.1954C28.2814 32.1756 28.3055 32.1544 28.3282 32.1316L46.4505 13.951H54.0976V32.8255L41.5004 45.4634C41.1565 45.8085 41.1565 46.3678 41.5004 46.7129C41.5219 46.7344 41.5443 46.7546 41.5673 46.7735C41.7288 46.9055 41.9261 46.9716 42.1232 46.9716C42.3203 46.9716 42.5176 46.9055 42.679 46.7735C42.7021 46.7547 42.7245 46.7344 42.7459 46.7129C42.7463 46.7125 42.7459 46.7129 42.7463 46.7125L58.2389 31.1699V38.9646ZM26.095 31.14L23.5724 32.0334L21.8917 30.3473L22.7822 27.8166L26.095 31.14Z" fill="#FFAF29"/>
</svg>
