<svg width="30" height="30" viewBox="0 0 30 30" fill="none" xmlns="http://www.w3.org/2000/svg">
<g clip-path="url(#clip0)">
<path d="M21.8839 17.8838L21.8727 17.9775C19.1239 16.6075 18.8364 16.425 18.4814 16.9575C18.2352 17.3263 17.5177 18.1625 17.3014 18.41C17.0827 18.6537 16.8652 18.6725 16.4939 18.5038C16.1189 18.3163 14.9152 17.9225 13.4902 16.6475C12.3802 15.6538 11.6352 14.435 11.4152 14.06C11.0489 13.4275 11.8152 13.3375 12.5127 12.0175C12.6377 11.755 12.5739 11.5488 12.4814 11.3625C12.3877 11.175 11.6414 9.3375 11.3289 8.60501C11.0289 7.87501 10.7202 7.96751 10.4889 7.96751C9.76892 7.90501 9.24267 7.91501 8.77892 8.39751C6.76142 10.615 7.27017 12.9025 8.99642 15.335C12.3889 19.775 14.1964 20.5925 17.5014 21.7275C18.3939 22.0112 19.2077 21.9712 19.8514 21.8787C20.5689 21.765 22.0602 20.9775 22.3714 20.0962C22.6902 19.215 22.6902 18.4838 22.5964 18.315C22.5039 18.1463 22.2589 18.0525 21.8839 17.8838V17.8838Z" fill="white"/>
<path d="M25.65 4.31072C16.0388 -4.98053 0.1325 1.75822 0.12625 14.8657C0.12625 17.4857 0.8125 20.0407 2.12 22.297L0 29.9995L7.91875 27.9345C17.8 33.272 29.995 26.1845 30 14.8732C30 10.9032 28.45 7.16698 25.6312 4.35947L25.65 4.31072ZM27.5025 14.832C27.495 24.3732 17.0212 30.332 8.7375 25.462L8.2875 25.1945L3.6 26.4132L4.85625 21.857L4.5575 21.3882C-0.5975 13.182 5.325 2.45697 15.09 2.45697C18.4075 2.45697 21.5213 3.75072 23.8663 6.09448C26.21 8.41823 27.5025 11.532 27.5025 14.832V14.832Z" fill="white"/>
</g>
<defs>
<clipPath id="clip0">
<rect width="30" height="30" fill="white"/>
</clipPath>
</defs>
</svg>
