<svg width="30" height="30" viewBox="0 0 30 30" fill="none" xmlns="http://www.w3.org/2000/svg">
<path d="M21.8793 0H8.12073C3.64288 0 0 3.64288 0 8.12073V21.8795C0 26.3571 3.64288 30 8.12073 30H21.8795C26.3571 30 30 26.3571 30 21.8795V8.12073C30 3.64288 26.3571 0 21.8793 0V0ZM28.2413 21.8795C28.2413 25.3873 25.3873 28.2413 21.8793 28.2413H8.12073C4.61266 28.2413 1.75873 25.3873 1.75873 21.8795V8.12073C1.75873 4.61266 4.61266 1.75873 8.12073 1.75873H21.8795C25.3873 1.75873 28.2413 4.61266 28.2413 8.12073V21.8795Z" fill="white"/>
<path d="M14.9998 6.7971C10.4766 6.7971 6.79688 10.4768 6.79688 15C6.79688 19.5232 10.4766 23.2029 14.9998 23.2029C19.5229 23.2029 23.2027 19.5232 23.2027 15C23.2027 10.4768 19.5229 6.7971 14.9998 6.7971V6.7971ZM14.9998 21.4442C11.4466 21.4442 8.5556 18.5534 8.5556 15C8.5556 11.4468 11.4466 8.55583 14.9998 8.55583C18.5532 8.55583 21.4439 11.4468 21.4439 15C21.4439 18.5534 18.5532 21.4442 14.9998 21.4442V21.4442Z" fill="white"/>
<path d="M23.399 3.8839C22.0623 3.8839 20.9751 4.97131 20.9751 6.30775C20.9751 7.64442 22.0623 8.73184 23.399 8.73184C24.7356 8.73184 25.823 7.64442 25.823 6.30775C25.823 4.97108 24.7356 3.8839 23.399 3.8839ZM23.399 6.97289C23.0323 6.97289 22.7338 6.67442 22.7338 6.30775C22.7338 5.94086 23.0323 5.64262 23.399 5.64262C23.7659 5.64262 24.0643 5.94086 24.0643 6.30775C24.0643 6.67442 23.7659 6.97289 23.399 6.97289Z" fill="white"/>
</svg>
