<svg width="40" height="40" viewBox="0 0 40 40" fill="none" xmlns="http://www.w3.org/2000/svg">
<path d="M38.3 8.9C37.215 6.97 36.0375 6.615 33.64 6.48C31.245 6.3175 25.2225 6.25 20.005 6.25C14.7775 6.25 8.7525 6.3175 6.36 6.4775C3.9675 6.615 2.7875 6.9675 1.6925 8.9C0.575 10.8275 0 14.1475 0 19.9925C0 19.9975 0 20 0 20C0 20.005 0 20.0075 0 20.0075V20.0125C0 25.8325 0.575 29.1775 1.6925 31.085C2.7875 33.015 3.965 33.365 6.3575 33.5275C8.7525 33.6675 14.7775 33.75 20.005 33.75C25.2225 33.75 31.245 33.6675 33.6425 33.53C36.04 33.3675 37.2175 33.0175 38.3025 31.0875C39.43 29.18 40 25.835 40 20.015C40 20.015 40 20.0075 40 20.0025C40 20.0025 40 19.9975 40 19.995C40 14.1475 39.43 10.8275 38.3 8.9ZM15 27.5V12.5L27.5 20L15 27.5Z" fill="#D10606"/>
</svg>
